<?xml version="1.0" standalone="no"?><!DOCTYPE svg PUBLIC "-//W3C//DTD SVG 1.1//EN" "http://www.w3.org/Graphics/SVG/1.1/DTD/svg11.dtd"><svg t="1764606969453" class="icon" viewBox="0 0 1024 1024" version="1.1" xmlns="http://www.w3.org/2000/svg" p-id="9575" xmlns:xlink="http://www.w3.org/1999/xlink" width="200" height="200"><path d="M583.168 501.321143a34.486857 34.486857 0 0 1 41.398857 55.222857l-44.397714 33.28 44.397714 33.28a34.56 34.56 0 0 1 9.472 44.324571l-2.56 3.913143a34.486857 34.486857 0 0 1-48.274286 6.948572l-59.538285-44.617143a54.820571 54.820571 0 0 1 0-87.625143l59.501714-44.617143v-0.109714zM340.187429 508.598857c27.026286 0 40.557714 13.531429 40.594285 40.557714v81.078858c0 27.062857-13.568 40.594286-40.594285 40.594285-27.062857 0-40.557714-13.531429-40.557715-40.594285v-81.078858c0-27.062857 13.531429-40.557714 40.557715-40.557714z" p-id="9576" fill="#2c2c2c"></path><path d="M603.904 245.028571a243.346286 243.346286 0 0 1 243.346286 243.346286v202.752a243.346286 243.346286 0 0 1-243.346286 243.382857H320a243.346286 243.346286 0 0 1-243.346286-243.382857v-202.752A243.346286 243.346286 0 0 1 320 244.992h283.904zM320 326.070857a162.267429 162.267429 0 0 0-162.267429 162.267429v202.752a162.267429 162.267429 0 0 0 162.267429 162.267428h283.904a162.267429 162.267429 0 0 0 162.230857-162.267428v-202.752a162.267429 162.267429 0 0 0-162.230857-162.267429H320zM847.213714 89.417143a17.92 17.92 0 0 1 16.493715 10.971428l19.748571 47.286858c3.913143 9.362286 10.898286 17.115429 19.785143 21.942857l34.852571 19.126857a17.92 17.92 0 1 1 0 31.341714l-34.852571 19.053714a44.690286 44.690286 0 0 0-19.748572 21.942858l-19.748571 47.36a17.810286 17.810286 0 0 1-32.987429 0l-19.785142-47.323429a44.397714 44.397714 0 0 0-19.748572-21.942857l-34.852571-19.126857a17.810286 17.810286 0 0 1 0-31.341715l34.852571-19.053714c8.850286-4.900571 15.835429-12.653714 19.748572-21.942857l19.748571-47.323429a17.810286 17.810286 0 0 1 16.493714-10.971428z" p-id="9577" fill="#2c2c2c"></path></svg>