<?xml version="1.0" standalone="no"?><!DOCTYPE svg PUBLIC "-//W3C//DTD SVG 1.1//EN" "http://www.w3.org/Graphics/SVG/1.1/DTD/svg11.dtd"><svg t="1762168856089" class="icon" viewBox="0 0 1024 1024" version="1.1" xmlns="http://www.w3.org/2000/svg" p-id="10214" xmlns:xlink="http://www.w3.org/1999/xlink" width="200" height="200"><path d="M237.482667 57.827556c5.404444 1.080889 10.496 3.128889 15.047111 5.973333l166.513778 104.504889 1.109333 0.711111c3.982222 2.56 9.272889 6.030222 21.077333 4.636444a626.432 626.432 0 0 1 133.034667-1.28c9.130667 0.881778 10.325333 0.142222 16.071111-3.498666l1.393778-0.881778 166.030222-104.192c19.768889-12.401778 46.677333-7.651556 60.103111 10.666667 3.100444 4.209778 5.290667 8.931556 6.456889 13.937777l45.141333 191.004445c2.730667 11.576889 3.754667 13.710222 12.657778 21.788444 72.903111 66.019556 116.963556 151.893333 116.963556 245.76 0 152.263111-115.882667 283.477333-282.737778 343.153778A971.832889 971.832889 0 0 1 335.672889 967.111111c-15.644444 0-15.644444-13.482667-10.24-18.147555 8.220444-7.139556 19.285333-16.867556 33.223111-29.212445 7.224889-6.371556 7.224889-13.027556-2.503111-15.616C165.489778 853.219556 28.444444 712.561778 28.444444 546.986667c0-85.304889 36.380444-163.982222 97.706667-227.214223 7.025778-7.224889 7.025778-7.964444 8.732445-15.217777l51.086222-216.177778c5.12-21.617778 28.16-35.271111 51.484444-30.549333z m399.075555 453.006222c0 10.496 4.209778 20.992 12.629334 29.013333l69.859555 66.190222a44.856889 44.856889 0 0 0 61.098667 0 39.594667 39.594667 0 0 0 0-58.026666L744.106667 513.706667a4.096 4.096 0 0 1 0-5.944889l36.067555-34.275556a39.537778 39.537778 0 0 0 1.763556-56.263111l-1.763556-1.763555a44.885333 44.885333 0 0 0-59.249778-1.649778l-1.848888 1.649778-69.859556 66.190222c-7.708444 7.338667-11.918222 16.782222-12.572444 26.396444l-0.085334 2.759111zM247.779556 458.865778v125.240889a44.657778 44.657778 0 1 0 89.315555 0v-125.240889a44.657778 44.657778 0 1 0-89.315555 0z" p-id="10215"></path></svg>