<?xml version="1.0" standalone="no"?><!DOCTYPE svg PUBLIC "-//W3C//DTD SVG 1.1//EN" "http://www.w3.org/Graphics/SVG/1.1/DTD/svg11.dtd"><svg t="1765215952461" class="icon" viewBox="0 0 1177 1024" version="1.1" xmlns="http://www.w3.org/2000/svg" p-id="5709" xmlns:xlink="http://www.w3.org/1999/xlink" width="229.8828125" height="200"><path d="M978.987254 727.204413c35.012548-8.899202 61.423559-36.382792 68.938987-71.716376 7.509278-35.337274-5.442843-71.186236-33.804667-93.559088l-93.688241-73.907042a17.033331 17.033331 0 0 1-6.45023-14.490878l7.767583-119.078334c2.34688-36.049456-15.627417-69.66224-46.909311-87.722639-31.281894-18.061629-69.387945-16.818077-99.428749 3.242336l-99.241785 66.266152a17.048091 17.048091 0 0 1-15.77379 1.659298l-110.849493-44.182355c-33.556203-13.375248-71.079224-6.669174-97.926893 17.504429-26.846439 24.172373-37.43692 60.790098-27.639802 95.560333l32.355702 114.854442a17.038251 17.038251 0 0 1-3.296456 15.517945l-76.274833 91.770638c-23.089954 27.778795-28.310164 65.53921-13.612642 98.546823 8.305102 18.652039 21.982936 33.585724 38.834223 43.31519 12.963191 7.484678 27.809545 11.886923 43.505843 12.506854l119.240697 4.72082a17.059161 17.059161 0 0 1 13.735645 7.931176l63.708938 100.903544c8.389973 13.286687 19.613915 23.936209 32.583257 31.424576 16.845138 9.725776 36.630026 14.110801 56.930292 11.973025 35.926454-3.778625 66.015228-27.173624 78.536842-61.063163l41.338546-111.940522a17.055471 17.055471 0 0 1 11.784831-10.616312l115.647806-29.413492-0.0123-0.00738z" fill="#F779D4" p-id="5710"></path><path d="M936.02631 484.815242c36.177378-35.256092 48.944996-87.004306 33.343409-135.047697-15.612657-48.043391-56.363253-82.400338-106.351306-89.663612l-165.129091-23.99771a23.818127 23.818127 0 0 1-17.942317-13.038222L606.097774 73.433484C583.734762 28.137961 538.467528 0 487.956716 0c-50.509583 0-95.786656 28.146571-118.139829 73.444555L295.967656 223.076611a23.840267 23.840267 0 0 1-17.942317 13.039452l-165.13032 23.99771c-49.988054 7.263274-90.73742 41.620221-106.347617 89.663612-15.612657 48.043391-2.835198 99.791605 33.339719 135.047697l119.485472 116.467a23.827967 23.827967 0 0 1 6.857367 21.09486l-28.205612 164.46242c-8.540036 49.78387 11.540057 99.163064 52.416115 128.857001 23.097335 16.782407 50.103676 25.303992 77.311741 25.303992 20.931268 0 41.989227-5.049236 61.430939-15.273171l147.698463-77.651226a23.850107 23.850107 0 0 1 22.179739 0l147.699693 77.651226c19.451552 10.223935 40.488602 15.273171 61.42971 15.273171 27.199455 0 54.224246-8.521586 77.312971-25.303992 40.866218-29.693937 60.946311-79.063291 52.414885-128.857001l-28.205612-164.46242a23.853797 23.853797 0 0 1 6.848757-21.09486L936.04599 484.815242h-0.01968z" fill="#FAC5EB" opacity=".9" p-id="5711"></path></svg>