<?xml version="1.0" standalone="no"?><!DOCTYPE svg PUBLIC "-//W3C//DTD SVG 1.1//EN" "http://www.w3.org/Graphics/SVG/1.1/DTD/svg11.dtd"><svg t="1765297888097" class="icon" viewBox="0 0 1076 1024" version="1.1" xmlns="http://www.w3.org/2000/svg" p-id="12621" xmlns:xlink="http://www.w3.org/1999/xlink" width="210.15625" height="200"><path d="M1069.325388 262.722245C1065.340193 264.437726 1058.926933 265.176703 1050.032822 264.991958L1011.210164 266.126815C992.498224 265.942071 981.044088 263.857102 976.900541 259.898299L972.915346 255.649184C971.965234 254.699071 969.906656 252.957198 966.68683 250.397173 963.467004 247.837147 955.523007 240.658518 942.88123 228.834894 930.213061 217.037662 922.559376 209.436761 919.920174 206.032191L895.824262 176.816227 882.496293 162.643713 869.722556 148.761512 855.840355 137.122632C846.392013 129.389771 840.057928 125.879632 836.838102 126.645001 833.618276 127.595113 830.213706 131.184428 826.624391 137.412944L815.302216 159.529455 793.739937 198.088193C798.279364 200.173163 804.982937 202.865148 813.877047 206.164151 822.771157 209.463153 829.553905 212.445451 834.278077 215.084653 839.002248 217.750246 841.271961 221.049249 841.087217 225.008051 840.902473 226.908277 839.213384 229.890575 835.993558 233.954945 832.773731 238.019316 830.688762 241.371102 829.765041 244.010304L827.205016 252.798846 823.510133 261.297076 817.281617 288.797559C828.814929 279.560352 837.20759 272.935956 842.512386 268.950761 847.79079 264.991958 851.960728 261.640172 854.995811 258.895402 858.004501 256.150632 863.018984 250.397173 870.012869 241.608631 877.006753 232.820089 881.308652 228.043133 882.918565 227.277765 884.528479 226.538788 891.073699 230.128103 902.607011 238.0721L917.360149 246.860642C922.453808 250.634701 927.046019 254.408759 931.11039 258.182818 935.174761 261.983268 937.444474 264.939174 937.919531 267.129712 938.394587 269.293857 937.497258 271.695531 935.227545 274.361125 933.907944 275.86547 931.822975 277.317031 928.972637 278.7422 926.148691 280.167369 909.046663 286.026397 877.666554 296.319284 846.286445 306.612171 828.419049 314.001936 824.090758 318.435795 819.736075 322.869654 816.27872 328.596721 813.745087 335.590606 811.185061 342.584491 809.522364 348.971359 808.783387 354.724819 808.018019 360.478279 807.833275 366.310915 808.202763 372.169943L810.182164 390.301259C810.947533 398.060512 811.976821 403.3917 813.322814 406.321214 814.642415 409.250728 816.938521 412.41777 820.263915 415.82234 823.562917 419.226911 829.606689 423.607986 838.395231 428.991957 847.183773 434.402321 870.857413 436.698427 909.416151 435.95945 918.310261 435.95945 926.465395 435.009337 933.934336 433.109112 941.403277 431.235279 948.397162 426.959772 954.91599 420.361768 961.434819 413.737371 966.924358 407.033799 971.358217 400.224658 975.818468 393.415517 978.774374 389.562283 980.305111 388.61217 981.809456 387.662057 985.504339 388.87609 991.363367 392.280661L1014.03411 408.168655C1028.206624 416.851629 1036.097837 423.185713 1037.70775 427.170908 1039.317663 431.129711 1039.739936 434.349537 1038.974567 436.803995 1038.024454 439.443196 1032.851619 443.217255 1023.403276 448.152562 1013.928542 453.061478 994.504017 457.310593 965.129701 460.899907 935.728993 464.489221 906.592205 465.439334 877.666554 463.723853 864.444153 463.169621 852.330217 461.269395 841.377529 458.049569 830.424842 454.856135 820.9765 449.736083 813.032502 442.742199 805.088505 435.748314 800.126805 430.786615 798.147404 427.857101 796.168003 424.927587 793.713545 417.564214 790.784031 405.766982 787.828125 393.943358 786.19182 384.072743 785.822332 376.128746L785.53202 352.032833 783.262306 328.781466 784.687475 305.82041C784.687475 298.826525 784.872219 294.656586 785.241707 293.336986L787.511421 283.413587C787.511421 282.27873 787.511421 279.27004 787.511421 274.361125L789.781134 236.937243 785.822332 210.571618C777.69359 216.430646 773.523651 221.418737 773.338907 225.588676L773.338907 230.682335C772.943027 234.66753 769.934337 238.916645 764.260053 243.456072L752.066941 252.508534 737.894427 263.302869 717.493397 275.495982C708.968776 281.909242 703.637588 283.651115 701.473443 280.721601 699.282905 277.792087 699.520433 273.701324 702.186027 268.396529 705.960086 260.848412 710.737041 253.405863 716.490501 246.148058 722.243961 238.863861 728.076597 232.001936 733.935625 225.588676L755.181199 202.337308C765.025422 190.803996 772.204051 180.748637 776.743478 172.14484 781.282905 163.541042 787.036365 151.74381 794.030249 136.70036 801.024134 121.683301 805.853873 110.493086 808.493075 103.103321L820.105563 71.063411 829.765041 41.029295C832.588987 40.079182 836.178302 40.263926 840.532985 41.583527 842.03733 42.164152 845.996132 44.328297 852.435785 48.102356L861.778559 53.486327C866.133242 56.521409 868.402956 60.005156 868.5877 63.99035L854.995811 87.241718C852.726097 91.200521 852.066297 94.314779 852.990017 96.584492 853.570642 98.669462 855.497259 100.833607 858.822653 103.103321 862.121655 105.373034 864.338585 106.903771 865.473442 107.642748L904.876724 144.222085 937.497258 177.660771C944.675887 185.23528 951.194716 190.962348 957.053744 194.815583 962.912772 198.69521 970.513673 202.812364 979.882839 207.167047 989.225613 211.495338 999.333756 215.374965 1010.207268 218.779535 1021.080779 222.184105 1026.596711 223.873195 1026.781455 223.873195L1035.306077 228.412622 1050.032822 234.377218C1053.437393 236.066307 1057.501764 238.626333 1062.225935 242.030903 1066.950106 245.435473 1070.460244 248.444163 1072.729958 251.109757 1074.999671 253.748959 1075.897 255.965888 1075.421944 257.760546 1074.946887 259.555203 1072.914702 261.2179 1069.325388 262.722245ZM733.355 128.624402C727.311228 128.254914 720.264559 123.530743 712.241386 114.451889 704.19182 105.373034 696.511743 94.499523 689.121978 81.857747 681.758605 69.189578 677.641451 60.876092 676.796906 56.890898 675.952361 52.932095 676.480202 49.633093 678.354035 46.967499L681.468293 45.27841C683.553263 43.958809 684.793687 43.19344 685.163176 43.008696L693.951718 45.832642 700.760858 46.967499 705.300285 50.081757 710.974569 50.372069 716.622461 54.357264 725.411003 57.761834 731.665911 62.855494 737.894427 67.394921C738.079171 67.764409 738.84454 69.189578 740.164141 71.644036L744.99388 79.851953C745.548112 81.38269 746.392657 84.681692 747.527514 89.775352 748.662371 94.895403 749.744443 99.276478 750.800124 102.971361 751.829413 106.666243 752.462821 109.780501 752.647565 112.314135 752.832309 114.874161 750.932084 118.384299 746.973281 122.818158 743.014479 127.252017 738.475052 129.205027 733.355 128.624402ZM698.068872 174.968786C707.411647 176.789835 712.188602 177.660771 712.373346 177.660771L721.161888 183.91568C724.962339 186.370137 727.179268 188.11201 727.839068 189.167691 728.498869 190.19698 728.815573 191.859677 728.815573 194.12939 728.630829 196.187968 728.261341 197.903449 727.680716 199.22305L717.493397 209.700681C716.543285 210.835538 713.851299 214.53042 709.41744 220.758936 704.957189 227.013845 701.763755 232.001936 699.757961 235.802387 697.77856 239.576445 695.851943 244.485361 693.951718 250.529133 692.051492 256.572905 689.227546 270.481498 685.453488 292.202129 681.653037 313.949152 680.095908 326.511752 680.782101 329.916322 681.441901 333.320893 682.708718 335.353078 684.608943 336.012878 686.482777 336.672679 690.837459 333.875125 697.6466 327.646609L707.279687 320.283236 716.622461 312.048926C725.516571 306.585779 729.580942 308.274868 728.815573 317.168978 728.446085 320.573548 726.070803 326.986808 721.742512 336.435151L715.513996 351.742521C713.429027 356.651436 709.839712 363.698105 704.719661 372.856135 699.626001 382.040558 696.326999 388.427426 694.796262 392.01674L684.872863 418.936599C673.154807 448.601227 665.897003 464.489221 663.046665 466.574191 660.222719 468.632768 657.372381 468.448024 654.548435 465.993566 652.64821 464.673966 651.328609 461.797236 650.589632 457.363377 649.824264 452.903126 648.451879 446.674609 646.472477 438.651436 644.493076 430.60187 642.460891 421.206312 640.375921 410.438369 638.290952 399.670426 636.549079 392.01674 635.12391 387.477313 633.698741 382.937886 633.382037 379.533316 634.121013 377.263602 634.516893 375.944001 636.496295 373.067272 640.085609 368.607021 643.674924 364.173162 645.839069 360.821375 646.604438 358.551662 647.369806 356.281948 648.583839 348.628263 650.29932 335.590606L655.683292 294.207922C659.826838 261.112332 660.513031 241.503063 657.662693 235.353722 654.838747 229.230774 651.434177 225.298364 647.448982 223.609274L623.08915 227.568077C613.614415 229.072422 606.198258 226.855493 600.814287 220.917289 595.430315 214.952693 593.028641 210.386873 593.582874 207.167047 595.298355 199.407794 611.265526 191.463797 641.510778 183.335055L682.33923 172.567112C683.474086 172.382368 688.699706 173.174128 698.068872 174.968786ZM628.182809 554.116514 652.569034 556.095915C670.146117 559.130997 679.013835 563.0898 679.224972 567.998715 679.409716 572.934023 677.931763 576.94561 674.817505 580.059868 671.703247 583.174126 667.111035 584.836823 661.067263 585.021567L633.566781 582.751853C629.396842 582.567109 615.039584 583.596398 590.468616 585.866112L556.158992 588.716449 523.274538 592.965564C505.697454 595.235278 486.668809 598.692632 466.162211 603.311235 445.655614 607.929838 432.27486 609.882848 426.046344 609.117479 412.243319 607.613134 403.982617 602.308339 401.237847 593.255877 398.493078 584.177022 397.886061 578.39717 399.390406 575.942713 401.079495 573.303511 413.193432 570.189253 435.679431 566.599939 458.16543 563.010624 492.475053 559.738014 538.581908 556.8085 584.715156 553.878986 614.564528 552.981657 628.182809 554.116514ZM476.507882 244.590929 431.984548 245.435473 357.427098 247.705187C342.119727 248.259419 333.093657 250.159644 330.348888 253.379471 327.604118 256.572905 326.337301 262.352757 326.522045 270.666242 326.706789 278.979728 326.812357 284.548444 326.812357 287.398782L326.231733 338.414552C326.046989 344.484716 326.046989 349.472808 326.231733 353.458002L327.102669 389.456715 327.656902 413.842939C328.02639 428.015453 328.131958 437.463795 327.947214 442.187966L320.293529 494.919218C319.52816 499.828133 318.155775 504.261992 316.176374 508.247187 314.196973 512.20599 312.217571 513.868687 310.23817 513.208886 308.232377 512.549086 307.255872 510.12102 307.255872 505.977473L301.291276 448.997107 297.042161 302.996464C296.857417 297.691669 296.989377 292.439657 297.464433 287.240429 297.93949 282.041202 298.177018 278.87416 298.177018 277.739303 297.992274 276.419702 297.411649 273.305444 296.487929 268.396529 295.537816 263.487613 293.743159 259.977475 291.077565 257.892506 288.438363 255.833928 281.154166 256.863217 269.251366 261.033156 261.703249 263.857102 252.334083 266.496303 241.196651 268.950761 230.032828 271.431611 222.141614 273.226268 217.523011 274.361125 212.878016 275.495982 207.599612 276.947543 201.635016 278.7422 195.696812 280.536857 191.394914 281.434186 188.755712 281.434186 184.770517 281.61893 180.23109 280.167369 175.137431 277.053111 170.043771 273.91246 165.504344 269.663346 161.519149 264.279374 157.560347 258.895402 156.02961 254.329583 156.979722 250.529133 158.114579 245.250729 161.571933 241.846159 167.325393 240.315422 173.105245 238.811077 189.864176 235.881563 217.654971 231.52688L273.500481 224.453819C284.294816 223.134218 290.576117 221.154817 292.370774 218.489223 294.165431 215.850021 295.06276 212.814939 295.06276 209.436761L293.927903 142.796916 293.083358 112.472487C292.687478 99.250086 292.133246 90.67268 291.367877 86.819446 290.602509 82.939819 289.256516 77.159967 287.250722 69.506282 285.271321 61.852597 283.529448 57.286778 282.025103 55.756041 278.805277 52.932095 272.761505 53.539111 263.867395 57.603482 254.999677 61.667853 249.140649 63.515294 246.290311 63.145806 239.87705 62.380437 233.780494 57.418738 228.000642 48.260708 222.247182 39.076286 220.214997 33.454786 221.904086 31.369816 222.669455 30.446096 234.625039 26.856781 257.770838 20.601873 280.916638 14.373357 306.859992 11.628587 335.600899 12.393956 337.870613 12.5787 339.955582 12.684268 341.829415 12.684268L349.773413 13.2385 377.564207 12.684268C384.558092 13.423244 392.264561 16.299974 400.657223 21.314458 409.076277 26.328941 409.868037 32.240753 403.085289 39.049894 401.000319 41.108471 395.035723 43.114264 385.217893 44.988098L365.661407 49.237212C345.999354 50.372069 335.257803 51.744454 333.463146 53.354367 331.668488 54.96428 330.50724 60.110724 329.926615 68.793698L329.372383 83.256523 327.656902 99.989063C327.472158 101.704544 327.524942 105.531387 327.815254 111.469591 328.079174 117.434187 328.02639 126.275513 327.656902 137.993568 327.287413 149.711624 327.181845 156.309629 327.36659 157.840366L327.947214 216.219509 343.544896 214.820732 399.100094 214.820732 462.889601 214.820732C464.789826 214.820732 471.203087 216.668174 482.182166 220.336664 493.134854 224.031547 498.650785 228.095917 498.756353 232.529776 498.861922 236.963635 497.806241 240.051502 495.642095 241.740591 493.47795 243.456072 487.091082 244.406184 476.507882 244.590929ZM417.09945 149.606056C413.219824 154.699716 410.633406 157.840366 409.313805 158.948831L404.484066 163.224338 397.120693 172.567112C395.801092 173.701969 390.126808 177.159323 380.124233 182.912783 370.095266 188.692635 360.7261 192.229165 352.043126 193.548766 343.360152 194.868367 337.923397 194.314135 335.732859 191.859677 333.568714 189.405219 338.240101 181.355654 349.773413 167.737373 356.186673 160.004511 362.573541 150.265857 368.907626 138.547801 375.24171 126.829745 379.543609 116.193762 381.813322 106.666243 384.083036 97.112333 385.402637 91.807537 385.772125 90.778249 386.168005 89.74896 386.431925 89.115551 386.643062 88.930807 387.01255 88.746063 390.258768 89.458648 396.408108 91.068561 402.557448 92.678474 408.548436 95.080147 414.407464 98.299974L427.181201 105.953659C432.644349 108.592861 436.576759 110.915358 438.952041 112.89476 441.300931 114.874161 442.303827 118.146771 441.907947 122.659806 441.538459 125.140656 438.265849 128.967498 432.1429 134.166726 425.99356 139.365953 420.979077 144.512397 417.09945 149.606056ZM246.712583 130.471843C255.131637 133.770846 260.80592 138.363057 263.735434 144.222085 266.664948 150.081113 268.169293 158.816871 268.274862 170.45575 268.354038 182.068238 267.931765 189.906668 266.981653 193.971038 266.03154 198.035409 264.448019 200.885747 262.178305 202.469268 259.908592 204.079181 255.369165 202.62762 248.560024 198.088193 242.88574 194.498879 236.287736 187.58417 228.713227 177.396851L211.426455 154.990028 201.212744 140.23689C197.992918 134.588998 196.910845 131.026076 197.966526 129.627299 198.995815 128.20213 202.717089 127.014489 209.156742 126.064376 215.570002 125.140656 221.059542 124.744776 225.598969 124.92952 231.273252 125.3254 238.319921 127.172841 246.712583 130.471843ZM165.345992 79.007409C161.096877 80.142265 157.850659 79.667209 155.580945 77.58224 155.185065 77.397495 153.865464 75.89315 151.595751 73.069205L146.211779 66.814296 142.543288 54.911496C141.593176 52.457039 139.03315 48.392668 134.889603 42.718384L117.286127 17.777927C115.781782 15.877702 114.092693 12.156427 112.192468 6.587712 110.292243 0.992604 113.432893-1.039582 121.561634 0.491155 123.435468 1.045388 130.904409 3.262317 143.942065 7.141944 156.979722 11.021571 164.92372 13.898301 167.774058 15.798526 170.598003 17.672359 174.08175 22.449314 178.251689 30.102999 182.421627 37.756685 184.295461 45.647898 183.925972 53.77664 183.345348 63.040238 181.181203 69.268754 177.407144 72.48858 173.606693 75.708406 169.595107 77.872552 165.345992 79.007409ZM134.308979 128.33409C141.672352 127.779858 150.196974 128.677186 159.83006 131.026076 169.463147 133.401357 175.981975 137.122632 179.386545 142.242683 182.791116 147.336343 183.345348 151.585458 181.075635 154.990028 180.336658 155.940141 177.169616 157.972326 171.6009 161.086584 166.005792 164.200842 161.096877 169.92791 156.847762 178.241396 152.598647 186.554881 149.985837 193.73351 149.062117 199.777282L147.346636 224.163507 145.657547 235.802387C145.076922 239.945933 144.52269 247.177346 143.942065 257.470233 143.387833 267.789512 142.200192 277.475383 140.405535 286.527845 138.610878 295.606699 139.03315 301.201807 141.672352 303.260384 144.337946 305.345354 147.92726 305.714842 152.466687 304.395241 153.205664 304.210497 157.08529 301.808823 164.079175 297.163828 171.07306 292.545225 175.876407 291.17284 178.542001 293.073065 181.181203 294.946899 182.421627 297.797237 182.210491 301.571295 181.841003 304.579985 180.046346 308.406828 176.82652 313.051823 173.606693 317.670426 168.750562 325.851952 162.231734 337.570008 155.712905 349.288063 151.754103 356.862573 150.328934 360.240751 148.903765 363.645321 146.581267 370.401678 143.387833 380.509821 140.168007 390.644355 138.37335 396.740912 138.003861 398.799489L132.039265 426.036051C128.819439 433.953657 125.889925 438.070812 123.250723 438.361124 120.611522 438.651436 117.286127 433.4786 113.327325 422.895401 109.73801 413.842939 106.439008 404.341813 103.403926 394.418414 100.368844 384.495015 97.650466 376.419058 95.196008 370.16415 92.715159 363.935633 91.870614 359.211462 92.635983 355.991636 93.005471 353.537178 95.037656 349.63116 98.732539 344.220796 102.427421 338.836824 105.119407 334.271005 106.808496 330.470555 108.497585 326.696496 109.86997 320.098492 110.925651 310.650149 111.95494 301.201807 112.535564 286.158357 112.61474 265.572583 112.720308 244.960417 113.089797 228.412622 113.749597 215.955589 114.409397 203.472165 113.855165 193.891862 112.060508 187.161898 110.265851 180.458325 108.233665 176.446739 105.963952 175.127138 103.694238 173.807537 98.600579 174.361769 90.656581 176.816227L65.1355 183.91568C62.311554 185.050536 58.009655 187.161898 52.229803 190.276156 46.476343 193.416806 41.9897 194.868367 38.769874 194.683623 35.550048 194.683623 32.145478 193.548766 28.556163 191.279053L8.155134 173.701969C2.665594 169.162542 0.026392 165.969107 0.211136 164.068882 0.765369 159.344711 9.765047 155.174772 27.130994 151.585458L64.554876 142.506604 86.961699 138.547801C95.275184 137.2282 104.222079 135.301583 113.749597 132.741557 123.303507 130.181531 130.13904 128.72997 134.308979 128.33409ZM665.316378 860.316705 671.835207 874.779531 674.949465 880.717735C678.169291 887.526876 680.25426 895.945929 681.204373 905.948504 682.128094 915.977471 681.230765 922.258771 678.512387 924.818797 675.767617 927.352431 671.544894 928.540071 665.897003 928.355327 661.172831 928.355327 657.530733 927.457999 654.970707 925.663341 652.410681 923.868684 645.469581 915.449631 634.121013 900.432572 622.798837 885.389122 613.825551 873.116834 607.201155 863.562923 600.576758 854.035405 596.908268 848.677825 596.142899 847.542969L586.219501 837.35565 578.275503 827.986483 572.891532 824.027681 535.757963 874.779531C529.31831 883.462505 519.790792 893.676216 507.122623 905.394272 494.454455 917.112328 484.214352 925.188285 476.34953 929.622144 468.511101 934.082395 461.385256 937.513357 454.945604 939.967815 448.532343 942.422273 443.940132 944.322498 441.195363 945.642099 438.476985 946.9617 435.758607 947.35758 433.119405 946.776956 430.480203 946.222723 428.21049 944.428066 426.310264 941.392984 424.436431 938.357902 431.430316 930.625041 447.291919 918.141616 449.957512 916.267783 456.370773 909.643387 466.584484 898.294819L506.278079 860.580625C508.151912 858.337304 514.67074 849.52237 525.834564 834.215 536.971995 818.907629 542.092047 808.429998 541.141934 802.755714 540.772446 800.881881 539.479237 797.794015 537.315092 793.5449 535.150946 789.295785 523.089794 775.62472 501.158027 752.584488L471.678143 721.679435 455.81654 708.641779C455.605404 708.641779 452.913418 705.844225 447.740583 700.275509 442.514963 694.706793 440.271642 691.249439 440.931442 689.929838 441.591243 688.610237 445.418085 687.924045 452.41197 687.924045 454.470548 688.135181 456.080461 688.214357 457.215317 688.214357L485.850657 700.988093 505.143222 708.641779 516.465397 716.005152C525.544252 720.359835 530.505951 723.368525 531.350496 725.084006 532.221432 726.773095 532.775664 727.775992 533.065977 728.039912 533.356289 728.330224 534.80785 728.858064 537.447052 729.623433 540.112645 730.362409 543.30608 732.262635 547.10653 735.271325L563.548757 749.443838C567.692304 737.541038 570.489858 728.910848 571.915027 723.526877 573.313804 718.116513 574.131956 713.920182 574.316701 710.911492L574.316701 709.486323 579.41036 681.985841C579.595104 680.481496 580.07016 674.807212 580.835529 664.962989 581.600898 655.145158 582.999674 649.15417 585.084644 646.963633 587.169613 644.799487 590.758928 643.902159 595.852587 644.271647 596.987444 644.456391 601.051815 645.802384 608.045699 648.256842L631.587379 655.329903C638.185384 658.734473 641.80109 662.033475 642.355323 665.253301 642.935947 668.473127 641.220466 673.197299 637.261663 679.425815 635.176694 682.645641 633.566781 685.390411 632.431924 687.660124L616.280009 730.177665C602.661728 756.648859 596.512388 771.850661 597.858381 775.835856 598.966845 780.164147 609.23334 792.779532 628.605081 813.68201 647.976822 834.558096 660.222719 850.102994 665.316378 860.316705ZM385.217893 808.007726C387.091726 768.023819 388.094623 744.534923 388.200191 737.541038 388.279367 730.547153 388.332151 725.26875 388.332151 721.679435 388.147407 713.735438 387.513998 706.134537 386.48471 698.85034 385.455421 691.566143 385.033149 687.000324 385.217893 685.100099 385.402637 682.460897 386.352749 678.686838 388.041839 673.751531 389.75732 668.842616 391.499193 666.01867 393.29385 665.253301 395.088507 664.514325 397.595749 664.883813 400.815575 666.388158 404.009009 667.892503 406.146763 669.924688 407.176052 672.484714 408.231732 675.04474 408.733181 678.211782 408.733181 681.985841L407.598324 709.486323 406.753779 753.719345 406.753779 777.524945C406.569035 778.659802 406.014803 782.539429 405.06469 789.137433 404.114577 795.76183 403.639521 803.600259 403.639521 812.679113 403.454777 815.898939 403.533953 829.042164 403.929833 852.082396 404.299322 875.149019 404.484066 887.236563 404.484066 888.37142L401.369808 928.90956 402.794977 951.026071C402.794977 957.280979 403.533953 961.47731 405.06469 963.641455 406.569035 965.805601 409.313805 967.468298 413.272608 968.603155 417.257802 969.738011 424.805919 970.318636 435.969743 970.318636L472.813 970.318636 611.740582 963.509495 651.724489 961.530094 689.41229 960.104925 714.933372 958.389444C727.20566 958.970068 736.654002 962.453814 743.278399 968.893467 749.902795 975.306727 753.122622 980.030898 752.911485 983.06598 752.726741 985.15095 751.459924 987.552623 749.084643 990.297393 746.735753 993.042163 741.58931 994.784036 733.645312 995.549405 729.105885 996.103637 717.757318 995.628581 699.626001 994.124236L664.181521 992.699067C651.724489 992.144834 644.14998 991.854522 641.510778 991.854522 639.610553 992.039266 631.481811 992.804635 617.124554 994.124236L536.602507 996.948182 492.105565 1001.487609C476.982939 1003.018346 460.38236 1004.153203 442.330219 1004.892179 424.278079 1005.657548 414.35468 1006.686836 412.560023 1008.006437 410.765366 1009.326038 408.284516 1012.413904 405.06469 1017.217251 401.844864 1022.046991 398.91535 1024.26392 396.276148 1023.894432 392.686834 1023.524944 389.044735 1020.120373 385.349853 1013.680721 381.681362 1007.267461 379.728353 1003.493402 379.543609 1002.358545 379.358865 1001.223689 379.253297 996.103637 379.253297 987.024783L380.968778 941.683296C381.892498 892.541359 383.317667 847.965241 385.217893 808.007726Z" p-id="12622"></path></svg>