<?xml version="1.0" standalone="no"?><!DOCTYPE svg PUBLIC "-//W3C//DTD SVG 1.1//EN" "http://www.w3.org/Graphics/SVG/1.1/DTD/svg11.dtd"><svg t="1765458133636" class="icon" viewBox="0 0 1024 1024" version="1.1" xmlns="http://www.w3.org/2000/svg" p-id="4109" xmlns:xlink="http://www.w3.org/1999/xlink" width="200" height="200"><path d="M512 0a512 512 0 1 1 0 1024A512 512 0 0 1 512 0z m59.968 236.096c-31.36-13.312-80.576-21.504-137.792 7.744-101.632 61.312-88.704 224.32-88.704 224.32s-14.08 34.944-20.224 52.48c-7.232 20.608-19.84 62.08-19.84 62.08s-8.96 24.576-14.464 59.072-2.688 61.44 3.904 59.84c12.928-3.264 46.272-63.552 46.272-63.552s-2.496 70.912 51.264 117.888c-47.104 8.128-59.584 23.488-59.584 33.216 0 11.456 38.656 10.752 85.952 10.752 22.912 0 44.416-0.64 60.544-2.432 17.28 3.008 28.864 2.432 28.864 2.432h6.656s8 0.448 20.736-1.024c13.376 0.64 28.8 1.024 44.864 1.024 48.64 0 88.32 0.64 88.32-10.624 0-6.848-9.344-19.84-41.984-28.736 58.752-46.848 56.064-121.792 56.064-121.792s33.28 60.288 46.208 63.488c6.656 1.728 9.472-25.28 4.288-59.904-5.504-34.496-14.528-59.136-14.528-59.136s-12.608-41.408-19.776-61.952c-6.208-17.6-20.224-52.544-20.224-52.544s12.928-163.136-88.704-224.32c-6.272-3.136-12.16-6.144-18.112-8.32z" fill="#40A4E4" p-id="4110"></path></svg>