<?xml version="1.0" standalone="no"?><!DOCTYPE svg PUBLIC "-//W3C//DTD SVG 1.1//EN" "http://www.w3.org/Graphics/SVG/1.1/DTD/svg11.dtd"><svg t="1765458147066" class="icon" viewBox="0 0 1024 1024" version="1.1" xmlns="http://www.w3.org/2000/svg" p-id="5125" xmlns:xlink="http://www.w3.org/1999/xlink" width="200" height="200"><path d="M512 512m-512 0a512 512 0 1 0 1024 0 512 512 0 1 0-1024 0Z" fill="#1EC700" p-id="5126"></path><path d="M633.976471 396.047059c7.529412 0 15.058824 0 24.094117 1.505882C636.988235 299.670588 531.576471 225.882353 411.105882 225.882353c-135.529412 0-245.458824 91.858824-245.458823 207.811765 0 67.764706 36.141176 121.976471 97.882353 165.647058l-24.094118 73.788236 85.835294-42.164706c30.117647 6.023529 55.717647 12.047059 85.835294 12.047059 7.529412 0 15.058824 0 22.588236-1.505883-4.517647-16.564706-7.529412-33.129412-7.529412-51.2 0-106.917647 91.858824-194.258824 207.811765-194.258823z m-131.011765-66.258824c18.070588 0 30.117647 12.047059 30.117647 30.117647s-12.047059 30.117647-30.117647 30.117647-36.141176-12.047059-36.141177-30.117647c-1.505882-18.070588 18.070588-30.117647 36.141177-30.117647zM331.294118 391.529412c-18.070588 0-37.647059-12.047059-37.647059-30.117647s18.070588-30.117647 37.647059-30.117647c18.070588 0 30.117647 12.047059 30.117647 30.117647s-12.047059 30.117647-30.117647 30.117647z m527.058823 195.764706c0-97.882353-97.882353-177.694118-207.811765-177.694118-115.952941 0-207.811765 79.811765-207.811764 177.694118 0 97.882353 91.858824 177.694118 207.811764 177.694117 24.094118 0 49.694118-6.023529 73.788236-12.047059l67.764706 36.141177-18.070589-61.741177c46.682353-36.141176 84.329412-84.329412 84.329412-140.047058z m-275.57647-30.117647c-12.047059 0-24.094118-12.047059-24.094118-24.094118s12.047059-24.094118 24.094118-24.094118c18.070588 0 30.117647 12.047059 30.117647 24.094118s-12.047059 24.094118-30.117647 24.094118z m134.023529 0c-12.047059 0-24.094118-12.047059-24.094118-24.094118s12.047059-24.094118 24.094118-24.094118c18.070588 0 30.117647 12.047059 30.117647 24.094118 1.505882 12.047059-12.047059 24.094118-30.117647 24.094118z" fill="#FFFFFF" p-id="5127"></path></svg>