<?xml version="1.0" standalone="no"?><!DOCTYPE svg PUBLIC "-//W3C//DTD SVG 1.1//EN" "http://www.w3.org/Graphics/SVG/1.1/DTD/svg11.dtd"><svg t="1763213846068" class="icon" viewBox="0 0 1024 1024" version="1.1" xmlns="http://www.w3.org/2000/svg" p-id="5441" xmlns:xlink="http://www.w3.org/1999/xlink" width="200" height="200"><path d="M384.13 881.11L142.89 639.87A21.32 21.32 0 0 1 173 609.71L414.29 851a21.32 21.32 0 0 1-30.16 30.16z" fill="#FF80B4" p-id="5442"></path><path d="M173 851a21.31 21.31 0 0 1 0-30.16l241.29-241.28a21.32 21.32 0 1 1 30.16 30.16L203.2 851a21.31 21.31 0 0 1-30.2 0z" fill="#FF80B4" p-id="5443"></path><path d="M414.29 609.71c-108.08-108.08-108.08-283.94 0-392s283.94-108.08 392 0 108.08 283.94 0 392-283.93 108.08-392 0z m361.86-361.86c-91.45-91.45-240.26-91.45-331.71 0s-91.45 240.26 0 331.71 240.26 91.45 331.71 0 91.45-240.26 0-331.71z" fill="#FF80B4" p-id="5444"></path><path d="M696.67 291.61a21.32 21.32 0 0 1 27.78-32.2A193.14 193.14 0 0 1 746 278a21.32 21.32 0 1 1-30.16 30.16 148.54 148.54 0 0 0-16.77-14.47 23.36 23.36 0 0 1-2.4-2.08zM474.6 308.16a21.31 21.31 0 0 1 0-30.16 192 192 0 0 1 170.88-53 21.32 21.32 0 0 1-7.78 42 149.36 149.36 0 0 0-132.95 41.18 21.31 21.31 0 0 1-30.15-0.02z" fill="#FF80B4" p-id="5445"></path></svg>