<?xml version="1.0" standalone="no"?><!DOCTYPE svg PUBLIC "-//W3C//DTD SVG 1.1//EN" "http://www.w3.org/Graphics/SVG/1.1/DTD/svg11.dtd"><svg t="1765444568685" class="icon" viewBox="0 0 1026 1024" version="1.1" xmlns="http://www.w3.org/2000/svg" p-id="18060" xmlns:xlink="http://www.w3.org/1999/xlink" width="200.390625" height="200"><path d="M874.385629 151.658283C774.642715 51.915369 643.832335 2.043912 513.021956 2.043912S251.401198 51.915369 151.658283 151.658283c-199.485828 199.485828-199.485828 523.037126 0 722.727346C251.401198 974.128543 382.211577 1024 513.021956 1024s261.620758-49.871457 361.363673-149.614371c199.485828-199.69022 199.485828-523.037126 0-722.727346zM53.141717 513.021956c0-59.682236 11.241517-117.933733 33.72455-173.119361 23.096208-57.02515 57.02515-108.122954 100.969262-152.067066 43.944112-43.944112 95.041916-77.873054 152.067066-100.969262 55.185629-22.483034 113.437126-33.724551 173.119361-33.72455s117.933733 11.241517 173.119361 33.72455c49.258283 20.030339 94.01996 48.031936 133.467465 83.391617L170.257884 819.608782c-35.564072-39.651896-63.565669-84.413573-83.391617-133.467465-22.483034-55.185629-33.724551-113.437126-33.72455-173.119361z m785.066666 325.186427c-43.944112 43.944112-95.041916 77.873054-152.067066 100.969262-55.185629 22.278643-113.232735 33.724551-173.119361 33.724551s-117.933733-11.241517-173.119361-33.724551c-49.258283-20.030339-94.01996-48.031936-133.467465-83.391617L855.786028 206.43513c35.564072 39.651896 63.565669 84.413573 83.391617 133.467465 22.278643 55.185629 33.724551 113.232735 33.724551 173.119361s-11.241517 117.933733-33.724551 173.119361c-23.096208 57.02515-57.02515 108.122954-100.969262 152.067066z" fill="#FF153C" p-id="18061"></path></svg>