<?xml version="1.0" standalone="no"?><!DOCTYPE svg PUBLIC "-//W3C//DTD SVG 1.1//EN" "http://www.w3.org/Graphics/SVG/1.1/DTD/svg11.dtd"><svg t="1765444513826" class="icon" viewBox="0 0 1024 1024" version="1.1" xmlns="http://www.w3.org/2000/svg" p-id="13438" xmlns:xlink="http://www.w3.org/1999/xlink" width="200" height="200"><path d="M76.957538 528.856615a472.615385 472.615385 0 1 0 945.23077 0 472.615385 472.615385 0 0 0-945.23077 0zM484.903385 727.827692c-6.301538 6.301538-17.329231 5.513846-24.418462-1.575384l-21.504-21.504-143.202461-143.202462a18.432 18.432 0 0 1 0-25.993846L334.769231 496.246154a18.432 18.432 0 0 1 25.993846 0l112.64 112.64 265.924923-266.003692c6.301538-6.301538 17.329231-5.592615 24.418462 1.575384l39.148307 39.069539c7.089231 7.168 7.876923 18.116923 1.575385 24.418461L484.903385 727.827692z" fill="#52C41A" p-id="13439"></path></svg>