<?xml version="1.0" standalone="no"?><!DOCTYPE svg PUBLIC "-//W3C//DTD SVG 1.1//EN" "http://www.w3.org/Graphics/SVG/1.1/DTD/svg11.dtd"><svg t="1765444537435" class="icon" viewBox="0 0 1024 1024" version="1.1" xmlns="http://www.w3.org/2000/svg" p-id="15836" xmlns:xlink="http://www.w3.org/1999/xlink" width="200" height="200"><path d="M547.008 475.328c-12.928 0-25.792 0.576-38.4 1.664a163.2 163.2 0 1 1 46.528-1.536l-8.128-0.128zM299.264 314.88c0 77.248 38.528 145.536 97.472 186.56a445.312 445.312 0 0 0-293.376 384.512c-2.88 37.76 27.968 66.432 62.72 66.432h380.928a32 32 0 1 0 0-64H167.36a381.056 381.056 0 0 1 341.248-347.072 230.272 230.272 0 0 0 50.944-1.664 378.752 378.752 0 0 1 177.92 50.688 32 32 0 1 0 32.064-55.36 442.496 442.496 0 0 0-101.12-42.816 227.136 227.136 0 1 0-369.152-177.28z m385.28 371.392a32 32 0 0 1 45.312 0l64.96 64.96 64.96-64.96a32 32 0 1 1 45.248 45.248l-64.96 64.96 64.96 65.024a32 32 0 0 1-45.248 45.248L794.88 841.6l-64.96 65.024a32 32 0 0 1-45.248-45.248l64.96-65.024-64.96-64.96a32 32 0 0 1 0-45.248z" fill="#707070" p-id="15837"></path></svg>